<svg width="50" height="125" xmlns="http://www.w3.org/2000/svg">

 <g>
  <title>background</title>
  <rect fill="none" id="canvas_background" height="402" width="582" y="-1" x="-1"/>
 </g>
 <g>
  <title>Layer 1</title>
  <path stroke="null" stroke-width="0" id="svg_2" fill="#000000" d="m42.517468,43.748009c-0.490647,0.021348 -0.970593,0.260086 -1.30782,0.650866c-5.019367,5.749855 -13.87336,16.326584 -19.290352,22.585073l-6.702556,-5.613746c-0.793728,-0.664581 -2.068116,-0.478538 -2.675087,0.39052c-0.606971,0.869036 -0.43705,2.264337 0.356678,2.928897l8.084708,6.769007c0.739989,0.619364 1.903235,0.515121 2.541309,-0.227803c5.322259,-6.096688 15.203532,-17.942367 20.449557,-23.951891c0.527408,-0.595256 0.680067,-1.551873 0.36833,-2.307659c-0.311737,-0.755786 -1.06818,-1.262888 -1.824766,-1.223264zm-37.020213,4.181788l0,31.241591c0.000095,1.090487 0.906296,2.082667 1.902284,2.082771l28.534265,0c0.995989,-0.000104 1.902189,-0.992284 1.902284,-2.082771l0,-14.579399c0.014267,-1.10038 -0.897165,-2.112451 -1.902284,-2.112451c-1.005119,0 -1.916504,1.012071 -1.902284,2.112451l0,12.496628l-24.729696,0l0,-27.076048l21.87627,0c1.004977,0.015621 1.929392,-0.982287 1.929392,-2.082771c0,-1.100484 -0.924415,-2.09834 -1.929392,-2.082771l-23.778554,0c-1.093528,0.028117 -1.881169,1.204987 -1.902284,2.082771z"/>
 </g>
</svg>