<svg xmlns:dc="http://purl.org/dc/elements/1.1/" xmlns:cc="http://creativecommons.org/ns#" xmlns:rdf="http://www.w3.org/1999/02/22-rdf-syntax-ns#" xmlns:svg="http://www.w3.org/2000/svg" xmlns="http://www.w3.org/2000/svg" xmlns:sodipodi="http://sodipodi.sourceforge.net/DTD/sodipodi-0.dtd" xmlns:inkscape="http://www.inkscape.org/namespaces/inkscape" viewBox="0 0 8.4666667 10.583333625" version="1.1" x="0px" y="0px"><svg:g><svg:path style="color:#000000;font-style:normal;font-variant:normal;font-weight:normal;font-stretch:normal;font-size:medium;line-height:normal;font-family:sans-serif;font-variant-ligatures:normal;font-variant-position:normal;font-variant-caps:normal;font-variant-numeric:normal;font-variant-alternates:normal;font-feature-settings:normal;text-indent:0;text-align:start;text-decoration:none;text-decoration-line:none;text-decoration-style:solid;text-decoration-color:#000000;letter-spacing:normal;word-spacing:normal;text-transform:none;writing-mode:lr-tb;direction:ltr;text-orientation:mixed;dominant-baseline:auto;baseline-shift:baseline;text-anchor:start;white-space:normal;shape-padding:0;clip-rule:nonzero;display:inline;overflow:visible;visibility:visible;opacity:1;isolation:auto;mix-blend-mode:normal;color-interpolation:sRGB;color-interpolation-filters:linearRGB;solid-color:#000000;solid-opacity:1;vector-effect:none;fill:#000000;fill-opacity:1;fill-rule:nonzero;stroke:none;stroke-width:0.52916664;stroke-linecap:round;stroke-linejoin:round;stroke-miterlimit:4;stroke-dasharray:none;stroke-dashoffset:0;stroke-opacity:1;color-rendering:auto;image-rendering:auto;shape-rendering:auto;text-rendering:auto;enable-background:accumulate" d="M 2.4395114,-2.6822033e-6 C 2.2034924,0.00499732 1.9831024,0.12330732 1.8478184,0.31676732 l -1.45159099,1.59163998 0.0062,-0.004 c -0.159253,0.16559 -0.231685,0.38128 -0.212905,0.57619 0.01879,0.19491 0.114459,0.36296 0.248047,0.48421 0.133588,0.12126 0.310099,0.20167 0.505912,0.20154 0.19580999,-1.4e-4 0.40504799,-0.0932 0.55448799,-0.26769 l 0.214974,-0.23616 v 2.65772 l 0.0021,-0.0176 c -0.01514,0.23579 0.07218,0.45347 0.218587,0.59015 0.14641,0.13668 0.335984,0.1974 0.519867,0.1974 0.183882,0 0.370871,-0.0607 0.517281,-0.1974 0.146407,-0.13668 0.233717,-0.35436 0.218591,-0.59015 l 0.0021,0.0176 v -2.65978 l 0.220657,0.24391 -0.0057,-0.01 c 0.14889,0.17751 0.357337,0.27458 0.554486,0.27544 0.197151,7.9e-4 0.375726,-0.0811 0.510047,-0.20309 0.134319,-0.122 0.229995,-0.28996 0.248047,-0.48628 0.01805,-0.19633 -0.0567,-0.41301 -0.219109,-0.57825 l -1.462442,-1.61127998 0.02119,0.0274 c -0.140192,-0.20195 -0.3712,-0.32187 -0.617016,-0.318330002203 a 0.26460979,0.26460979 0 0 0 -0.0021,0 z M 6.0098364,2.3791773 c -0.183883,0 -0.371388,0.0602 -0.517798,0.19689 -0.146407,0.13668 -0.235786,0.35436 -0.220657,0.59014 v 2.64067 l -0.216524,-0.23668 c -0.14944,-0.1745 -0.357127,-0.26703 -0.55294,-0.26717 -0.195808,-1.3e-4 -0.372322,0.0797 -0.50591,0.20102 -0.133588,0.12126 -0.229269,0.2893 -0.248047,0.48421 -0.01879,0.19491 0.05365,0.4106 0.212905,0.57619 l 1.465027,1.61334 -0.01963,-0.0253 c 0.135287,0.19346 0.353608,0.30953 0.58963,0.3142 a 0.26460979,0.26460979 0 0 0 0.0021,0 c 0.245816,0.004 0.478893,-0.11431 0.619085,-0.31626 l -0.02119,0.0274 1.462958,-1.61128 v -0.002 c 0.161419,-0.16504 0.236587,-0.38043 0.21859,-0.57618 -0.01805,-0.19634 -0.115795,-0.36635 -0.250116,-0.48835 -0.134321,-0.122 -0.310311,-0.20189 -0.50746,-0.20102 -0.196596,8e-4 -0.406199,0.0968 -0.555006,0.27337 l -0.216525,0.23823 v -2.64429 c 0.01513,-0.23578 -0.0727,-0.45346 -0.219109,-0.59014 -0.146407,-0.13668 -0.335465,-0.19689 -0.519348,-0.19689 z"/></svg:g><text x="0" y="23.4666669" fill="#000000" font-size="5px" font-weight="bold" font-family="'Helvetica Neue', Helvetica, Arial-Unicode, Arial, Sans-serif">Created by Larea</text><text x="0" y="28.4666669" fill="#000000" font-size="5px" font-weight="bold" font-family="'Helvetica Neue', Helvetica, Arial-Unicode, Arial, Sans-serif">from the Noun Project</text></svg>